<svg width="66" height="12" viewBox="0 0 66 12" fill="none" xmlns="http://www.w3.org/2000/svg">
<path d="M8.69531 9V3.70312L8.73633 2.66016L8.37891 3.68555L6.375 9H4.89258L2.88867 3.69727L2.53125 2.64258L2.56641 3.69141V9H0.919922V0.609375H3.33984L5.35547 5.77734L5.69531 7.00781L6.04102 5.77734L8.05078 0.609375H10.4707V9H8.69531ZM18.9668 8.91797C18.9316 8.9375 18.877 8.96289 18.8027 8.99414C18.7324 9.02539 18.6484 9.05469 18.5508 9.08203C18.4531 9.11328 18.3457 9.13867 18.2285 9.1582C18.1152 9.17773 18 9.1875 17.8828 9.1875C17.6836 9.1875 17.5059 9.16602 17.3496 9.12305C17.1934 9.08008 17.0605 9.01172 16.9512 8.91797C16.8457 8.82422 16.7637 8.70117 16.7051 8.54883C16.6504 8.39258 16.623 8.20312 16.623 7.98047C16.623 7.88281 16.6289 7.76758 16.6406 7.63477C16.6562 7.50195 16.6758 7.34766 16.6992 7.17188C16.6211 7.53906 16.4941 7.85156 16.3184 8.10938C16.1465 8.36328 15.9395 8.57031 15.6973 8.73047C15.4551 8.89062 15.1855 9.00586 14.8887 9.07617C14.5957 9.15039 14.291 9.1875 13.9746 9.1875C13.627 9.1875 13.3164 9.14648 13.043 9.06445C12.7734 8.98242 12.5449 8.86523 12.3574 8.71289C12.1738 8.56055 12.0332 8.37891 11.9355 8.16797C11.8379 7.95312 11.7891 7.71289 11.7891 7.44727C11.7891 7.18555 11.8438 6.95898 11.9531 6.76758C12.0625 6.57227 12.2168 6.40625 12.416 6.26953C12.6152 6.12891 12.8535 6.01562 13.1309 5.92969C13.4082 5.83984 13.7148 5.77148 14.0508 5.72461C14.3906 5.67383 14.7539 5.64062 15.1406 5.625C15.5273 5.60547 15.9277 5.5957 16.3418 5.5957V5.18555C16.3418 5.00977 16.3164 4.84961 16.2656 4.70508C16.2188 4.55664 16.1406 4.42969 16.0312 4.32422C15.9258 4.21875 15.7871 4.13672 15.6152 4.07812C15.4434 4.01953 15.2344 3.99023 14.9883 3.99023C14.8203 3.99023 14.6582 4.00977 14.502 4.04883C14.3457 4.08789 14.2031 4.15039 14.0742 4.23633C13.9453 4.31836 13.8359 4.42383 13.7461 4.55273C13.6562 4.68164 13.5938 4.83594 13.5586 5.01562L12.1582 4.75195C12.2285 4.45898 12.3418 4.19336 12.498 3.95508C12.6543 3.71289 12.8555 3.50586 13.1016 3.33398C13.3516 3.16211 13.6465 3.0293 13.9863 2.93555C14.3301 2.8418 14.7246 2.79492 15.1699 2.79492C16.1777 2.79492 16.9238 3.01562 17.4082 3.45703C17.8926 3.89844 18.1348 4.57617 18.1348 5.49023V7.59375C18.1348 7.77734 18.1621 7.91406 18.2168 8.00391C18.2754 8.08984 18.373 8.13281 18.5098 8.13281C18.6035 8.13281 18.6914 8.12305 18.7734 8.10352C18.8594 8.08008 18.9238 8.05859 18.9668 8.03906V8.91797ZM16.3477 6.38086C15.9531 6.39258 15.5898 6.41406 15.2578 6.44531C14.9258 6.47266 14.6367 6.52148 14.3906 6.5918C14.1484 6.66211 13.959 6.75977 13.8223 6.88477C13.6855 7.00977 13.6172 7.17383 13.6172 7.37695C13.6172 7.47852 13.6348 7.57422 13.6699 7.66406C13.7051 7.75 13.7598 7.82617 13.834 7.89258C13.9121 7.95898 14.0137 8.01172 14.1387 8.05078C14.2637 8.08984 14.4141 8.10938 14.5898 8.10938C14.8281 8.10938 15.0547 8.0625 15.2695 7.96875C15.4844 7.87109 15.6699 7.74609 15.8262 7.59375C15.9863 7.4375 16.1133 7.25977 16.207 7.06055C16.3008 6.85742 16.3477 6.65039 16.3477 6.43945V6.38086ZM24.7441 9V5.88867C24.7441 5.64648 24.7266 5.41992 24.6914 5.20898C24.6562 4.99414 24.5898 4.80664 24.4922 4.64648C24.3984 4.48633 24.2676 4.36133 24.0996 4.27148C23.9355 4.17773 23.7227 4.13086 23.4609 4.13086C23.2578 4.13086 23.0586 4.17773 22.8633 4.27148C22.6719 4.36523 22.5 4.50195 22.3477 4.68164C22.1953 4.86133 22.0723 5.08008 21.9785 5.33789C21.8887 5.5918 21.8438 5.87891 21.8438 6.19922V9H20.0508V2.98828H21.2988L21.5977 4.48828C21.707 4.20703 21.8516 3.96094 22.0312 3.75C22.2109 3.53906 22.4121 3.36328 22.6348 3.22266C22.8574 3.08203 23.0977 2.97656 23.3555 2.90625C23.6133 2.83203 23.877 2.79492 24.1465 2.79492C24.6035 2.79492 24.9844 2.87305 25.2891 3.0293C25.5977 3.18164 25.8438 3.39062 26.0273 3.65625C26.2148 3.91797 26.3457 4.22461 26.4199 4.57617C26.498 4.92773 26.5371 5.30078 26.5371 5.69531V9H24.7441ZM31.2832 6.82031C31.1699 6.82031 31.043 6.82227 30.9023 6.82617C30.7617 6.83008 30.6172 6.83789 30.4688 6.84961C30.3242 6.86133 30.1816 6.87695 30.041 6.89648C29.9004 6.91602 29.7734 6.94336 29.6602 6.97852C29.5508 7.00977 29.4629 7.04883 29.3965 7.0957C29.3301 7.14258 29.2969 7.19727 29.2969 7.25977C29.2969 7.38477 29.3633 7.47461 29.4961 7.5293C29.6328 7.58008 29.8242 7.61328 30.0703 7.62891L31.8691 7.66406C32.3379 7.68359 32.7383 7.73047 33.0703 7.80469C33.4062 7.875 33.6797 7.97852 33.8906 8.11523C34.1016 8.24805 34.2559 8.41211 34.3535 8.60742C34.4512 8.80273 34.5 9.03125 34.5 9.29297C34.5 9.63672 34.4082 9.93359 34.2246 10.1836C34.0449 10.4336 33.7969 10.6387 33.4805 10.7988C33.168 10.9629 32.8008 11.084 32.3789 11.1621C31.957 11.2402 31.5078 11.2793 31.0312 11.2793C30.4961 11.2793 30.0352 11.2422 29.6484 11.168C29.2617 11.0977 28.9434 11 28.6934 10.875C28.4434 10.75 28.2578 10.6035 28.1367 10.4355C28.0195 10.2676 27.9609 10.0879 27.9609 9.89648C27.9609 9.76758 27.9863 9.64062 28.0371 9.51562C28.0879 9.39453 28.1602 9.28125 28.2539 9.17578C28.3477 9.07422 28.459 8.98438 28.5879 8.90625C28.7207 8.82422 28.8672 8.75781 29.0273 8.70703C28.7891 8.66406 28.5898 8.60742 28.4297 8.53711C28.2734 8.46289 28.1465 8.37891 28.0488 8.28516C27.9551 8.1875 27.8887 8.08203 27.8496 7.96875C27.8105 7.85156 27.791 7.72852 27.791 7.59961C27.791 7.40039 27.8418 7.23242 27.9434 7.0957C28.0449 6.95508 28.1758 6.83984 28.3359 6.75C28.5 6.66016 28.6816 6.5918 28.8809 6.54492C29.084 6.49414 29.2832 6.46094 29.4785 6.44531C29.123 6.25781 28.8613 6.01953 28.6934 5.73047C28.5293 5.4375 28.4473 5.12305 28.4473 4.78711C28.4473 4.49023 28.5059 4.21875 28.623 3.97266C28.7402 3.72656 28.9141 3.51758 29.1445 3.3457C29.3789 3.16992 29.6699 3.03516 30.0176 2.94141C30.3691 2.84375 30.7773 2.79492 31.2422 2.79492C31.4297 2.79492 31.6074 2.80273 31.7754 2.81836C31.9473 2.83008 32.1094 2.84961 32.2617 2.87695C32.3516 2.88477 32.4355 2.87305 32.5137 2.8418C32.5918 2.80664 32.6582 2.75781 32.7129 2.69531C32.7715 2.63281 32.8164 2.56055 32.8477 2.47852C32.8828 2.39648 32.9004 2.30859 32.9004 2.21484C32.9004 2.15234 32.8926 2.08594 32.877 2.01562C32.8652 1.94141 32.8496 1.87109 32.8301 1.80469C32.8145 1.73438 32.7969 1.67188 32.7773 1.61719C32.7578 1.55859 32.7402 1.51367 32.7246 1.48242L34.0664 1.51172C34.0898 1.55078 34.123 1.63086 34.166 1.75195C34.209 1.86914 34.2305 2.00195 34.2305 2.15039C34.2305 2.27539 34.2051 2.39453 34.1543 2.50781C34.1035 2.62109 34.0312 2.72266 33.9375 2.8125C33.8438 2.89844 33.7305 2.97266 33.5977 3.03516C33.4688 3.09766 33.3262 3.14062 33.1699 3.16406C33.5098 3.33594 33.7617 3.55859 33.9258 3.83203C34.0938 4.10547 34.1777 4.42383 34.1777 4.78711C34.1777 5.10352 34.1113 5.38672 33.9785 5.63672C33.8496 5.88672 33.6602 6.09961 33.4102 6.27539C33.1641 6.45117 32.8613 6.58594 32.502 6.67969C32.1465 6.77344 31.7441 6.82031 31.2949 6.82031H31.2832ZM29.9648 8.79492L29.9941 8.80664C29.8418 8.88477 29.7129 8.99023 29.6074 9.12305C29.502 9.25586 29.4492 9.4043 29.4492 9.56836C29.4492 9.66992 29.4785 9.75977 29.5371 9.83789C29.5957 9.91602 29.6895 9.98242 29.8184 10.0371C29.9473 10.0918 30.1152 10.1328 30.3223 10.1602C30.5293 10.1914 30.7812 10.207 31.0781 10.207C31.3711 10.207 31.6172 10.1875 31.8164 10.1484C32.0156 10.1133 32.1758 10.0625 32.2969 9.99609C32.4219 9.93359 32.5098 9.85742 32.5605 9.76758C32.6152 9.67773 32.6426 9.57812 32.6426 9.46875C32.6426 9.375 32.623 9.28906 32.584 9.21094C32.5488 9.13672 32.4863 9.07227 32.3965 9.01758C32.3066 8.9668 32.1855 8.92578 32.0332 8.89453C31.8809 8.86328 31.6914 8.84375 31.4648 8.83594L29.9648 8.79492ZM31.2949 5.78906C31.4863 5.78906 31.6543 5.76367 31.7988 5.71289C31.9434 5.66211 32.0645 5.59375 32.1621 5.50781C32.2598 5.41797 32.332 5.3125 32.3789 5.19141C32.4297 5.07031 32.4551 4.93945 32.4551 4.79883C32.4551 4.6582 32.4297 4.5293 32.3789 4.41211C32.332 4.29492 32.2598 4.19336 32.1621 4.10742C32.0645 4.01758 31.9434 3.94922 31.7988 3.90234C31.6543 3.85156 31.4863 3.82617 31.2949 3.82617C30.916 3.82617 30.6328 3.91797 30.4453 4.10156C30.2578 4.28516 30.1641 4.51758 30.1641 4.79883C30.1641 4.93945 30.1855 5.07031 30.2285 5.19141C30.2754 5.3125 30.3457 5.41797 30.4395 5.50781C30.5332 5.59375 30.6504 5.66211 30.791 5.71289C30.9355 5.76367 31.1035 5.78906 31.2949 5.78906ZM42.334 8.91797C42.2988 8.9375 42.2441 8.96289 42.1699 8.99414C42.0996 9.02539 42.0156 9.05469 41.918 9.08203C41.8203 9.11328 41.7129 9.13867 41.5957 9.1582C41.4824 9.17773 41.3672 9.1875 41.25 9.1875C41.0508 9.1875 40.873 9.16602 40.7168 9.12305C40.5605 9.08008 40.4277 9.01172 40.3184 8.91797C40.2129 8.82422 40.1309 8.70117 40.0723 8.54883C40.0176 8.39258 39.9902 8.20312 39.9902 7.98047C39.9902 7.88281 39.9961 7.76758 40.0078 7.63477C40.0234 7.50195 40.043 7.34766 40.0664 7.17188C39.9883 7.53906 39.8613 7.85156 39.6855 8.10938C39.5137 8.36328 39.3066 8.57031 39.0645 8.73047C38.8223 8.89062 38.5527 9.00586 38.2559 9.07617C37.9629 9.15039 37.6582 9.1875 37.3418 9.1875C36.9941 9.1875 36.6836 9.14648 36.4102 9.06445C36.1406 8.98242 35.9121 8.86523 35.7246 8.71289C35.541 8.56055 35.4004 8.37891 35.3027 8.16797C35.2051 7.95312 35.1562 7.71289 35.1562 7.44727C35.1562 7.18555 35.2109 6.95898 35.3203 6.76758C35.4297 6.57227 35.584 6.40625 35.7832 6.26953C35.9824 6.12891 36.2207 6.01562 36.498 5.92969C36.7754 5.83984 37.082 5.77148 37.418 5.72461C37.7578 5.67383 38.1211 5.64062 38.5078 5.625C38.8945 5.60547 39.2949 5.5957 39.709 5.5957V5.18555C39.709 5.00977 39.6836 4.84961 39.6328 4.70508C39.5859 4.55664 39.5078 4.42969 39.3984 4.32422C39.293 4.21875 39.1543 4.13672 38.9824 4.07812C38.8105 4.01953 38.6016 3.99023 38.3555 3.99023C38.1875 3.99023 38.0254 4.00977 37.8691 4.04883C37.7129 4.08789 37.5703 4.15039 37.4414 4.23633C37.3125 4.31836 37.2031 4.42383 37.1133 4.55273C37.0234 4.68164 36.9609 4.83594 36.9258 5.01562L35.5254 4.75195C35.5957 4.45898 35.709 4.19336 35.8652 3.95508C36.0215 3.71289 36.2227 3.50586 36.4688 3.33398C36.7188 3.16211 37.0137 3.0293 37.3535 2.93555C37.6973 2.8418 38.0918 2.79492 38.5371 2.79492C39.5449 2.79492 40.291 3.01562 40.7754 3.45703C41.2598 3.89844 41.502 4.57617 41.502 5.49023V7.59375C41.502 7.77734 41.5293 7.91406 41.584 8.00391C41.6426 8.08984 41.7402 8.13281 41.877 8.13281C41.9707 8.13281 42.0586 8.12305 42.1406 8.10352C42.2266 8.08008 42.291 8.05859 42.334 8.03906V8.91797ZM39.7148 6.38086C39.3203 6.39258 38.957 6.41406 38.625 6.44531C38.293 6.47266 38.0039 6.52148 37.7578 6.5918C37.5156 6.66211 37.3262 6.75977 37.1895 6.88477C37.0527 7.00977 36.9844 7.17383 36.9844 7.37695C36.9844 7.47852 37.002 7.57422 37.0371 7.66406C37.0723 7.75 37.127 7.82617 37.2012 7.89258C37.2793 7.95898 37.3809 8.01172 37.5059 8.05078C37.6309 8.08984 37.7812 8.10938 37.957 8.10938C38.1953 8.10938 38.4219 8.0625 38.6367 7.96875C38.8516 7.87109 39.0371 7.74609 39.1934 7.59375C39.3535 7.4375 39.4805 7.25977 39.5742 7.06055C39.668 6.85742 39.7148 6.65039 39.7148 6.43945V6.38086ZM43.4824 9.00586V0.615234H45.375V7.42969H49.7871V9.00586H43.4824ZM57.6152 8.91797C57.5801 8.9375 57.5254 8.96289 57.4512 8.99414C57.3809 9.02539 57.2969 9.05469 57.1992 9.08203C57.1016 9.11328 56.9941 9.13867 56.877 9.1582C56.7637 9.17773 56.6484 9.1875 56.5312 9.1875C56.332 9.1875 56.1543 9.16602 55.998 9.12305C55.8418 9.08008 55.709 9.01172 55.5996 8.91797C55.4941 8.82422 55.4121 8.70117 55.3535 8.54883C55.2988 8.39258 55.2715 8.20312 55.2715 7.98047C55.2715 7.88281 55.2773 7.76758 55.2891 7.63477C55.3047 7.50195 55.3242 7.34766 55.3477 7.17188C55.2695 7.53906 55.1426 7.85156 54.9668 8.10938C54.7949 8.36328 54.5879 8.57031 54.3457 8.73047C54.1035 8.89062 53.834 9.00586 53.5371 9.07617C53.2441 9.15039 52.9395 9.1875 52.623 9.1875C52.2754 9.1875 51.9648 9.14648 51.6914 9.06445C51.4219 8.98242 51.1934 8.86523 51.0059 8.71289C50.8223 8.56055 50.6816 8.37891 50.584 8.16797C50.4863 7.95312 50.4375 7.71289 50.4375 7.44727C50.4375 7.18555 50.4922 6.95898 50.6016 6.76758C50.7109 6.57227 50.8652 6.40625 51.0645 6.26953C51.2637 6.12891 51.502 6.01562 51.7793 5.92969C52.0566 5.83984 52.3633 5.77148 52.6992 5.72461C53.0391 5.67383 53.4023 5.64062 53.7891 5.625C54.1758 5.60547 54.5762 5.5957 54.9902 5.5957V5.18555C54.9902 5.00977 54.9648 4.84961 54.9141 4.70508C54.8672 4.55664 54.7891 4.42969 54.6797 4.32422C54.5742 4.21875 54.4355 4.13672 54.2637 4.07812C54.0918 4.01953 53.8828 3.99023 53.6367 3.99023C53.4688 3.99023 53.3066 4.00977 53.1504 4.04883C52.9941 4.08789 52.8516 4.15039 52.7227 4.23633C52.5938 4.31836 52.4844 4.42383 52.3945 4.55273C52.3047 4.68164 52.2422 4.83594 52.207 5.01562L50.8066 4.75195C50.877 4.45898 50.9902 4.19336 51.1465 3.95508C51.3027 3.71289 51.5039 3.50586 51.75 3.33398C52 3.16211 52.2949 3.0293 52.6348 2.93555C52.9785 2.8418 53.373 2.79492 53.8184 2.79492C54.8262 2.79492 55.5723 3.01562 56.0566 3.45703C56.541 3.89844 56.7832 4.57617 56.7832 5.49023V7.59375C56.7832 7.77734 56.8105 7.91406 56.8652 8.00391C56.9238 8.08984 57.0215 8.13281 57.1582 8.13281C57.252 8.13281 57.3398 8.12305 57.4219 8.10352C57.5078 8.08008 57.5723 8.05859 57.6152 8.03906V8.91797ZM54.9961 6.38086C54.6016 6.39258 54.2383 6.41406 53.9062 6.44531C53.5742 6.47266 53.2852 6.52148 53.0391 6.5918C52.7969 6.66211 52.6074 6.75977 52.4707 6.88477C52.334 7.00977 52.2656 7.17383 52.2656 7.37695C52.2656 7.47852 52.2832 7.57422 52.3184 7.66406C52.3535 7.75 52.4082 7.82617 52.4824 7.89258C52.5605 7.95898 52.6621 8.01172 52.7871 8.05078C52.9121 8.08984 53.0625 8.10938 53.2383 8.10938C53.4766 8.10938 53.7031 8.0625 53.918 7.96875C54.1328 7.87109 54.3184 7.74609 54.4746 7.59375C54.6348 7.4375 54.7617 7.25977 54.8555 7.06055C54.9492 6.85742 54.9961 6.65039 54.9961 6.43945V6.38086ZM58.7461 9V0.527344H60.5449V3.94336C60.6191 3.79102 60.7246 3.64648 60.8613 3.50977C60.998 3.36914 61.1602 3.24609 61.3477 3.14062C61.5391 3.03516 61.7539 2.95117 61.9922 2.88867C62.2344 2.82617 62.5 2.79492 62.7891 2.79492C63.2148 2.79492 63.5996 2.86914 63.9434 3.01758C64.2871 3.16211 64.5801 3.37305 64.8223 3.65039C65.0645 3.92383 65.252 4.25781 65.3848 4.65234C65.5176 5.04688 65.584 5.49219 65.584 5.98828C65.584 6.46875 65.5176 6.90625 65.3848 7.30078C65.2559 7.69141 65.0684 8.02734 64.8223 8.30859C64.5801 8.58594 64.2871 8.80273 63.9434 8.95898C63.5996 9.11133 63.2168 9.1875 62.7949 9.1875C62.5059 9.1875 62.2344 9.1543 61.9805 9.08789C61.7305 9.02148 61.5 8.92773 61.2891 8.80664C61.082 8.68555 60.8984 8.54297 60.7383 8.37891C60.582 8.21484 60.457 8.0332 60.3633 7.83398L60.1055 9H58.7461ZM60.5391 6C60.5391 6.30469 60.5762 6.57617 60.6504 6.81445C60.7285 7.04883 60.8379 7.24609 60.9785 7.40625C61.1191 7.56641 61.2871 7.6875 61.4824 7.76953C61.6816 7.85156 61.9023 7.89258 62.1445 7.89258C62.3828 7.89258 62.5996 7.85352 62.7949 7.77539C62.9941 7.69336 63.1621 7.57227 63.2988 7.41211C63.4395 7.25195 63.5469 7.05469 63.6211 6.82031C63.6992 6.58203 63.7383 6.30469 63.7383 5.98828C63.7383 5.65625 63.6992 5.37109 63.6211 5.13281C63.543 4.89453 63.4336 4.69922 63.293 4.54688C63.1523 4.39062 62.9844 4.27539 62.7891 4.20117C62.5977 4.12695 62.3848 4.08984 62.1504 4.08984C61.9316 4.08984 61.7246 4.12695 61.5293 4.20117C61.334 4.27148 61.1621 4.38477 61.0137 4.54102C60.8691 4.69727 60.7539 4.89648 60.668 5.13867C60.582 5.37695 60.5391 5.66406 60.5391 6Z" fill="#FF0000"/>
</svg>
